<svg xmlns="http://www.w3.org/2000/svg" viewBox="0 0 400 400">
  <!-- Rounded square background with gradient -->
  <defs>
    <linearGradient id="bgGradient" x1="0%" y1="0%" x2="100%" y2="100%">
      <stop offset="0%" style="stop-color:#4FEDC3;stop-opacity:1" />
      <stop offset="100%" style="stop-color:#45D7B8;stop-opacity:1" />
    </linearGradient>
    <linearGradient id="accentGradient" x1="0%" y1="0%" x2="100%" y2="100%">
      <stop offset="0%" style="stop-color:#2a9d6a;stop-opacity:1" />
      <stop offset="100%" style="stop-color:#1a6f4a;stop-opacity:1" />
    </linearGradient>
  </defs>
  
  <!-- Outer rounded square border -->
  <rect x="30" y="30" width="340" height="340" rx="50" fill="url(#bgGradient)" />
  <rect x="35" y="35" width="330" height="330" rx="45" fill="none" stroke="url(#accentGradient)" stroke-width="8" />
  
  <!-- Money bag circle background -->
  <circle cx="200" cy="160" r="90" fill="#ffffff" opacity="0.15" />
  
  <!-- Money bag -->
  <g transform="translate(200, 160)">
    <!-- Bag body -->
    <ellipse cx="0" cy="0" rx="50" ry="60" fill="#2a9d6a" />
    <path d="M -50 -20 Q -60 0 -50 20 L 50 20 Q 60 0 50 -20" fill="#45D7B8" />
    <path d="M -50 -20 Q -50 -40 0 -45 Q 50 -40 50 -20" fill="#2a9d6a" />
    
    <!-- Dollar sign -->
    <text x="0" y="15" font-size="70" font-weight="bold" fill="#ffffff" text-anchor="middle" font-family="Arial, sans-serif">$</text>
    
    <!-- Coins stacked -->
    <g transform="translate(65, 20)">
      <circle cx="0" cy="0" r="20" fill="#FFD700" />
      <circle cx="0" cy="-8" r="18" fill="#FFC700" />
      <text x="0" y="8" font-size="18" font-weight="bold" fill="#1a6f4a" text-anchor="middle">$</text>
    </g>
  </g>
  
  <!-- PawnFlow Text -->
  <text x="200" y="330" font-size="48" font-weight="bold" fill="#ffffff" text-anchor="middle" font-family="Arial, sans-serif">PawnFlow</text>
</svg>